<svg xmlns="http://www.w3.org/2000/svg" viewBox="0 0 900 800" width="900" height="800">
  <defs>
    <radialGradient id="g" cx="50%" cy="50%" r="70%">
      <stop offset="0%" stop-color="#CC0000" stop-opacity="0.12"/>
      <stop offset="100%" stop-color="#1a1500" stop-opacity="1"/>
    </radialGradient>
  </defs>
  <rect width="900" height="800" fill="#1a1500"/>
  <rect width="900" height="800" fill="url(#g)"/>
  <!-- Grid lines -->
  <g opacity="0.04" stroke="#fff" stroke-width="1">
    <line x1="90" y1="0" x2="90" y2="800"/><line x1="180" y1="0" x2="180" y2="800"/><line x1="270" y1="0" x2="270" y2="800"/><line x1="360" y1="0" x2="360" y2="800"/><line x1="450" y1="0" x2="450" y2="800"/><line x1="540" y1="0" x2="540" y2="800"/><line x1="630" y1="0" x2="630" y2="800"/><line x1="720" y1="0" x2="720" y2="800"/><line x1="810" y1="0" x2="810" y2="800"/>
    <line x1="0" y1="80" x2="900" y2="80"/><line x1="0" y1="160" x2="900" y2="160"/><line x1="0" y1="240" x2="900" y2="240"/><line x1="0" y1="320" x2="900" y2="320"/><line x1="0" y1="400" x2="900" y2="400"/><line x1="0" y1="480" x2="900" y2="480"/><line x1="0" y1="560" x2="900" y2="560"/><line x1="0" y1="640" x2="900" y2="640"/><line x1="0" y1="720" x2="900" y2="720"/>
  </g>
  <!-- Icon -->
  <text x="450" y="340" font-size="133" text-anchor="middle" dominant-baseline="middle">📋</text>
  <!-- Red accent line -->
  <rect x="370" y="410" width="160" height="3" fill="#CC0000" rx="2"/>
  <!-- Label -->
  <text x="450" y="450" font-family="Montserrat,Arial,sans-serif" font-weight="800"
        font-size="44" fill="#ffffff" text-anchor="middle" dominant-baseline="middle">MACT Petition Drafting</text>
  <!-- Sub -->
  <text x="450" y="490" font-family="Montserrat,Arial,sans-serif" font-weight="400"
        font-size="28" fill="#CC0000" text-anchor="middle" dominant-baseline="middle" letter-spacing="3">DOCUMENTS | EVIDENCE | FORMS</text>
  <!-- Corner VLS mark -->
  <text x="24" y="36" font-family="Montserrat,Arial,sans-serif" font-weight="900"
        font-size="33" fill="#CC0000" opacity="0.6">VLS</text>
</svg>