<svg xmlns="http://www.w3.org/2000/svg" viewBox="0 0 900 600" width="900" height="600">
  <defs>
    <radialGradient id="g" cx="50%" cy="50%" r="70%">
      <stop offset="0%" stop-color="#CC0000" stop-opacity="0.12"/>
      <stop offset="100%" stop-color="#1a1a2e" stop-opacity="1"/>
    </radialGradient>
  </defs>
  <rect width="900" height="600" fill="#1a1a2e"/>
  <rect width="900" height="600" fill="url(#g)"/>
  <!-- Grid lines -->
  <g opacity="0.04" stroke="#fff" stroke-width="1">
    <line x1="90" y1="0" x2="90" y2="600"/><line x1="180" y1="0" x2="180" y2="600"/><line x1="270" y1="0" x2="270" y2="600"/><line x1="360" y1="0" x2="360" y2="600"/><line x1="450" y1="0" x2="450" y2="600"/><line x1="540" y1="0" x2="540" y2="600"/><line x1="630" y1="0" x2="630" y2="600"/><line x1="720" y1="0" x2="720" y2="600"/><line x1="810" y1="0" x2="810" y2="600"/>
    <line x1="0" y1="60" x2="900" y2="60"/><line x1="0" y1="120" x2="900" y2="120"/><line x1="0" y1="180" x2="900" y2="180"/><line x1="0" y1="240" x2="900" y2="240"/><line x1="0" y1="300" x2="900" y2="300"/><line x1="0" y1="360" x2="900" y2="360"/><line x1="0" y1="420" x2="900" y2="420"/><line x1="0" y1="480" x2="900" y2="480"/><line x1="0" y1="540" x2="900" y2="540"/>
  </g>
  <!-- Icon -->
  <text x="450" y="240" font-size="100" text-anchor="middle" dominant-baseline="middle">🏍️</text>
  <!-- Red accent line -->
  <rect x="370" y="310" width="160" height="3" fill="#CC0000" rx="2"/>
  <!-- Label -->
  <text x="450" y="350" font-family="Montserrat,Arial,sans-serif" font-weight="800"
        font-size="33" fill="#ffffff" text-anchor="middle" dominant-baseline="middle">Motor Accident Claims</text>
  <!-- Sub -->
  <text x="450" y="390" font-family="Montserrat,Arial,sans-serif" font-weight="400"
        font-size="21" fill="#CC0000" text-anchor="middle" dominant-baseline="middle" letter-spacing="3">MACT PROCEDURE | COMPENSATION</text>
  <!-- Corner VLS mark -->
  <text x="24" y="36" font-family="Montserrat,Arial,sans-serif" font-weight="900"
        font-size="25" fill="#CC0000" opacity="0.6">VLS</text>
</svg>